<svg width="30" height="30" viewBox="0 0 30 30" fill="none" xmlns="http://www.w3.org/2000/svg">
<path d="M23.8292 6.87231C24.3964 6.87237 24.9036 7.09025 25.2989 7.48755C25.6937 7.88441 25.9083 8.39092 25.9083 8.9563C25.9083 9.52177 25.6938 10.0286 25.2999 10.426L25.297 10.429L13.2726 22.4456L13.2706 22.4475C12.8784 22.8366 12.3769 23.0568 11.8116 23.0569C11.2458 23.0569 10.7433 22.8362 10.3517 22.4446L4.67392 16.7668C4.27568 16.3623 4.0648 15.8453 4.08017 15.2708C4.09511 14.7133 4.31433 14.2165 4.70615 13.8264C5.10308 13.4314 5.61029 13.2161 6.17587 13.2161C6.74113 13.2161 7.24734 13.4307 7.64462 13.8245L7.64951 13.8293L11.8136 18.0139L22.3517 7.48364L22.3614 7.47388C22.7596 7.08674 23.2643 6.87231 23.8292 6.87231Z" fill="#7BC043" stroke="#7BC043" stroke-width="2"/>
</svg>
