<svg xmlns="http://www.w3.org/2000/svg" xmlns:xlink="http://www.w3.org/1999/xlink" width="180" zoomAndPan="magnify" viewBox="0 0 135 135.000003" height="180" preserveAspectRatio="xMidYMid meet" version="1.0"><defs><clipPath id="86811b420d"><path d="M 0.496094 0 L 134.503906 0 L 134.503906 134.007812 L 0.496094 134.007812 Z M 0.496094 0 " clip-rule="nonzero"/></clipPath><clipPath id="9e659d6d0f"><path d="M 24.4375 39.183594 L 99.078125 39.183594 L 99.078125 113.824219 L 24.4375 113.824219 Z M 24.4375 39.183594 " clip-rule="nonzero"/></clipPath><clipPath id="759bd3ee96"><path d="M 61.757812 39.183594 C 41.144531 39.183594 24.4375 55.890625 24.4375 76.503906 C 24.4375 97.113281 41.144531 113.824219 61.757812 113.824219 C 82.371094 113.824219 99.078125 97.113281 99.078125 76.503906 C 99.078125 55.890625 82.371094 39.183594 61.757812 39.183594 Z M 61.757812 39.183594 " clip-rule="nonzero"/></clipPath><clipPath id="8b9ab4b2f2"><path d="M 0.4375 0.183594 L 75.078125 0.183594 L 75.078125 74.824219 L 0.4375 74.824219 Z M 0.4375 0.183594 " clip-rule="nonzero"/></clipPath><clipPath id="d93be6cce7"><path d="M 37.757812 0.183594 C 17.144531 0.183594 0.4375 16.890625 0.4375 37.503906 C 0.4375 58.113281 17.144531 74.824219 37.757812 74.824219 C 58.371094 74.824219 75.078125 58.113281 75.078125 37.503906 C 75.078125 16.890625 58.371094 0.183594 37.757812 0.183594 Z M 37.757812 0.183594 " clip-rule="nonzero"/></clipPath><clipPath id="4adfd6022e"><rect x="0" width="76" y="0" height="75"/></clipPath><clipPath id="73bdbb6df8"><path d="M 87.09375 16.988281 L 111.0625 16.988281 L 111.0625 40.960938 L 87.09375 40.960938 Z M 87.09375 16.988281 " clip-rule="nonzero"/></clipPath><clipPath id="c0e77a5f43"><path d="M 99.078125 16.988281 C 92.457031 16.988281 87.09375 22.355469 87.09375 28.972656 C 87.09375 35.59375 92.457031 40.960938 99.078125 40.960938 C 105.699219 40.960938 111.0625 35.59375 111.0625 28.972656 C 111.0625 22.355469 105.699219 16.988281 99.078125 16.988281 Z M 99.078125 16.988281 " clip-rule="nonzero"/></clipPath><clipPath id="a1c5a61044"><path d="M 0.09375 0.988281 L 24.0625 0.988281 L 24.0625 24.960938 L 0.09375 24.960938 Z M 0.09375 0.988281 " clip-rule="nonzero"/></clipPath><clipPath id="aeea96b67b"><path d="M 12.078125 0.988281 C 5.457031 0.988281 0.09375 6.355469 0.09375 12.972656 C 0.09375 19.59375 5.457031 24.960938 12.078125 24.960938 C 18.699219 24.960938 24.0625 19.59375 24.0625 12.972656 C 24.0625 6.355469 18.699219 0.988281 12.078125 0.988281 Z M 12.078125 0.988281 " clip-rule="nonzero"/></clipPath><clipPath id="cf7830a217"><rect x="0" width="25" y="0" height="25"/></clipPath></defs><g clip-path="url(#86811b420d)"><path fill="#ffffff" d="M 0.496094 0 L 134.503906 0 L 134.503906 134.007812 L 0.496094 134.007812 Z M 0.496094 0 " fill-opacity="1" fill-rule="nonzero"/><path fill="#ffffff" d="M 0.496094 0 L 134.503906 0 L 134.503906 134.007812 L 0.496094 134.007812 Z M 0.496094 0 " fill-opacity="1" fill-rule="nonzero"/></g><g clip-path="url(#9e659d6d0f)"><g clip-path="url(#759bd3ee96)"><g transform="matrix(1, 0, 0, 1, 24, 39)"><g clip-path="url(#4adfd6022e)"><g clip-path="url(#8b9ab4b2f2)"><g clip-path="url(#d93be6cce7)"><path fill="#45a2c3" d="M 0.4375 0.183594 L 75.078125 0.183594 L 75.078125 74.824219 L 0.4375 74.824219 Z M 0.4375 0.183594 " fill-opacity="1" fill-rule="nonzero"/></g></g></g></g></g></g><g clip-path="url(#73bdbb6df8)"><g clip-path="url(#c0e77a5f43)"><g transform="matrix(1, 0, 0, 1, 87, 16)"><g clip-path="url(#cf7830a217)"><g clip-path="url(#a1c5a61044)"><g clip-path="url(#aeea96b67b)"><path fill="#164194" d="M 0.09375 0.988281 L 24.0625 0.988281 L 24.0625 24.960938 L 0.09375 24.960938 Z M 0.09375 0.988281 " fill-opacity="1" fill-rule="nonzero"/></g></g></g></g></g></g></svg>