<svg width="30" height="30" viewBox="0 0 30 30" fill="none" xmlns="http://www.w3.org/2000/svg">
<path d="M21.9998 5.78125C22.592 5.78125 23.1468 5.98294 23.5818 6.41797C24.0168 6.853 24.2185 7.40771 24.2185 8C24.2185 8.59229 24.0168 9.147 23.5818 9.58203L18.1638 15L23.5818 20.418C24.0168 20.853 24.2185 21.4077 24.2185 22C24.2185 22.5923 24.0168 23.147 23.5818 23.582C23.1468 24.0171 22.592 24.2188 21.9998 24.2188C21.4075 24.2187 20.8528 24.0171 20.4177 23.582L14.9998 18.1641L9.58179 23.582C9.14676 24.0171 8.59205 24.2188 7.99976 24.2188C7.40746 24.2187 6.85275 24.0171 6.41772 23.582C5.9827 23.147 5.78101 22.5923 5.78101 22C5.78101 21.4077 5.9827 20.853 6.41772 20.418L11.8357 15L6.41772 9.58203C5.9827 9.147 5.78101 8.59229 5.78101 8C5.78101 7.40771 5.9827 6.853 6.41772 6.41797C6.85275 5.98294 7.40746 5.78125 7.99976 5.78125C8.59205 5.78125 9.14676 5.98294 9.58179 6.41797L14.9998 11.8359L20.4177 6.41797C20.8528 5.98294 21.4075 5.78125 21.9998 5.78125Z" fill="#E4191D" stroke="#E4191D" stroke-width="2"/>
</svg>
