<svg width="18" height="21" viewBox="0 0 18 21" fill="none" xmlns="http://www.w3.org/2000/svg">
<path d="M12.8118 1.47032L12.3549 0.75H9.59026V7.23761L9.58084 13.5746C9.58555 13.6217 9.59026 13.6734 9.59026 13.7205C9.59026 15.3071 8.29978 16.6018 6.70787 16.6018C5.11597 16.6018 3.82549 15.3118 3.82549 13.7205C3.82549 12.1339 5.11597 10.8392 6.70787 10.8392C7.03756 10.8392 7.35783 10.9004 7.65454 11.004V7.84024C7.34841 7.78845 7.03285 7.7602 6.70787 7.7602C3.42516 7.76491 0.75 10.439 0.75 13.7252C0.75 17.0114 3.42516 19.6855 6.71258 19.6855C10 19.6855 12.6752 17.0114 12.6752 13.7252V6.18773C13.8667 7.37885 15.4068 8.54173 17.1118 8.91366V5.67927C15.2608 4.86008 13.4193 2.44017 12.8118 1.47032Z" stroke="black" stroke-width="1.5"/>
</svg>
